<?xml version="1.0" encoding="UTF-8" standalone="no"?>
<svg viewBox="0 0 150 150" fill="none" xmlns="http://www.w3.org/2000/svg">
  <path
    d="m 58.574905,104.66266 v 4.4118 4.40894 4.41122 l 4.400447,-4.41122 4.402856,4.41122 v -4.41122 -4.40894 -4.4118 z"
    fill="#ffffff" />
  <path
    d="m 67.378267,51.739996 h 39.613853 c 1.21604,0 2.20046,-0.986362 2.20046,-2.204523 V 34.099074 c 0,-1.218145 -0.98442,-2.204496 -2.20046,-2.204496 H 49.771542 c -1.604646,0 -3.105913,0.431529 -4.402913,1.183624 -1.336378,0.774285 -2.448793,1.888863 -3.221584,3.227832 -0.748173,1.297052 -1.178865,2.80125 -1.178865,4.408991 v 63.947635 c 0,4.87277 3.940222,8.82074 8.803362,8.82074 h 5.628528 v -4.4095 h -5.628528 c -2.431564,0 -4.402913,-1.97514 -4.402913,-4.41124 0,-2.43609 1.971349,-4.41123 4.402913,-4.41123 h 55.020138 c 2.43208,0 4.4032,-1.97518 4.4032,-4.411836 v -35.27915 c 0,-2.436322 -1.97112,-4.411456 -4.4032,-4.411456 H 67.378267 c -1.215811,0 -2.200225,0.986306 -2.200225,2.204467 V 73.78988 c 0,1.218105 0.984414,2.204469 2.200225,2.204469 h 19.806947 c 1.215811,0 2.200224,0.986361 2.200224,2.204524 0,1.218103 -0.984413,2.204466 -2.200224,2.204466 H 67.378267 c -3.647377,0 -6.603139,-2.961496 -6.603139,-6.615925 V 58.35099 c 0,-3.654427 2.955762,-6.615923 6.603139,-6.615923 z"
    fill="url(#icon_gradient)" />
  <path
    d="M 106.99212,109.0739 H 70.683532 v 4.4095 h 36.308588 c 1.21604,0 2.20046,-0.98671 2.20046,-2.20446 0,-1.21834 -0.98442,-2.20504 -2.20046,-2.20504 z"
    fill="url(#icon_gradient)" />
  <defs>
    <linearGradient id="icon_gradient" x1="59.5" y1="0" x2="59.5" y2="142.306" gradientUnits="userSpaceOnUse">
      <stop offset="0%" style="stop-color: #fdba74"/>
      <stop offset="100%" style="stop-color: #f97316"/>
    </linearGradient>
  </defs>
</svg>
